<svg data-v-49015c94="" style="font-size:14px" color="#6e7794" xmlns="http://www.w3.org/2000/svg" width="1.5em" height="1.5em"
     viewBox="0 0 24 24"
     fill="none" stroke="currentColor" stroke-width="2" stroke-linecap="round" stroke-linejoin="round"
     class="dr-menu__icon feather feather-box">
    <path data-v-49015c94=""
          d="M21 16V8a2 2 0 0 0-1-1.73l-7-4a2 2 0 0 0-2 0l-7 4A2 2 0 0 0 3 8v8a2 2 0 0 0 1 1.73l7 4a2 2 0 0 0 2 0l7-4A2 2 0 0 0 21 16z"></path>
    <polyline data-v-49015c94="" points="3.27 6.96 12 12.01 20.73 6.96"></polyline>
    <line data-v-49015c94="" x1="12" y1="22.08" x2="12" y2="12"></line>
</svg>
